# xmcd CD database file
#
# Track frame offsets:
#	150
#	32061
#	56797
#	89613
#	124963
#	169944
#	200641
#	234062
#	260986
#	301901
#
# Disc length: 4400 seconds
#
# Revision: 0
# Processed by: cddbd v1.5.1PL2 Copyright (c) Steve Scherf et al.
# Submitted via: CDex 1.51
#
DISCID=8f112e0a
DTITLE=deva premal and miten - more than music
DYEAR=1900
DGENRE=New Age
TTITLE0=Deva Premal and Miten - Om Namo Bhagavate
TTITLE1=Deva Premal and Miten - Into the Wind
TTITLE2=Deva Premal and Miten - Om Tare Tuttare
TTITLE3=Deva Premal and Miten - So much Magnificence
TTITLE4=Deva Premal and Miten - Om Shree Saché
TTITLE5=Deva Premal and Miten - Silent Garden
TTITLE6=Deva Premal and Miten - Om Namo
TTITLE7=Deva Premal and Miten - Vertical Reality
TTITLE8=Deva Premal and Miten - Gayatri Mantra
TTITLE9=Deva Premal and Miten - Hari Om Shiva Om
EXTD=
EXTT0=
EXTT1=
EXTT2=
EXTT3=
EXTT4=
EXTT5=
EXTT6=
EXTT7=
EXTT8=
EXTT9=
PLAYORDER=
